<svg width="2118" height="465" viewBox="0 0 2118 465" fill="none" xmlns="http://www.w3.org/2000/svg">
<g clip-path="url(#clip0_194_1273)">
<path d="M164.456 0H109.888L222.133 219.454L166.01 334.093H232.1C241.978 334.093 250.998 328.467 255.339 319.589L294.886 238.799C300.852 226.617 300.727 212.327 294.546 200.252L204.7 24.614C196.966 9.50265 181.425 0 164.456 0Z" fill="url(#paint0_linear_194_1273)"/>
<path d="M164.456 0H109.888L222.133 219.454L166.01 334.093H232.1C241.978 334.093 250.998 328.467 255.339 319.589L294.886 238.799C300.852 226.617 300.727 212.327 294.546 200.252L204.7 24.614C196.966 9.50265 181.425 0 164.456 0Z" fill="url(#paint1_linear_194_1273)"/>
<path d="M204.7 24.614C249.445 112.103 252.946 156.526 222.134 219.454L166.011 334.093H232.101C241.978 334.093 250.999 328.467 255.339 319.589L294.886 238.799C300.852 226.617 300.727 212.327 294.547 200.252L204.7 24.614Z" fill="url(#paint2_linear_194_1273)"/>
<path style="mix-blend-mode:overlay" d="M204.7 24.614C249.445 112.103 252.946 156.526 222.134 219.454L166.011 334.093H232.101C241.978 334.093 250.999 328.467 255.339 319.589L294.886 238.799C300.852 226.617 300.727 212.327 294.547 200.252L204.7 24.614Z" fill="url(#paint3_linear_194_1273)"/>
<path opacity="0.42" d="M294.546 200.27L269.2 150.703C270.932 179.103 264.073 204.986 249.319 235.101L200.859 334.093H232.082C241.96 334.093 250.98 328.466 255.321 319.589L294.868 238.799C300.834 226.617 300.709 212.327 294.528 200.252L294.546 200.27Z" fill="url(#paint4_linear_194_1273)"/>
<path d="M134.823 464.111H189.392L77.1461 244.657L133.269 130.018H67.179C57.3013 130.018 48.2809 135.645 43.9404 144.522L4.39365 225.295C-1.5723 237.477 -1.44726 251.766 4.73303 263.841L94.5795 439.497C102.314 454.609 117.854 464.111 134.823 464.111Z" fill="url(#paint5_linear_194_1273)"/>
<path d="M134.823 464.111H189.392L77.1461 244.657L133.269 130.018H67.179C57.3013 130.018 48.2809 135.645 43.9404 144.522L4.39365 225.295C-1.5723 237.477 -1.44726 251.766 4.73303 263.841L94.5795 439.497C102.314 454.609 117.854 464.111 134.823 464.111Z" fill="url(#paint6_linear_194_1273)"/>
<path d="M94.5616 439.48C49.817 351.991 46.316 307.568 77.1282 244.64L133.251 130H67.1611C57.2834 130 48.263 135.627 43.9225 144.505L4.39365 225.295C-1.5723 237.477 -1.44726 251.767 4.73303 263.841L94.5795 439.498L94.5616 439.48Z" fill="url(#paint7_linear_194_1273)"/>
<path d="M94.5616 439.48C49.817 351.991 46.316 307.568 77.1282 244.64L133.251 130H67.1611C57.2834 130 48.263 135.627 43.9225 144.505L4.39365 225.295C-1.5723 237.477 -1.44726 251.767 4.73303 263.841L94.5795 439.498L94.5616 439.48Z" fill="url(#paint8_linear_194_1273)"/>
<path opacity="0.32" d="M4.71517 263.823L30.0615 313.391C28.3289 285.008 35.1879 259.108 49.9421 228.992L98.402 130H67.179C57.3013 130 48.2809 135.627 43.9404 144.505L4.39365 225.295C-1.5723 237.477 -1.44726 251.767 4.73303 263.841L4.71517 263.823Z" fill="url(#paint9_linear_194_1273)"/>
</g>
<path d="M2021.73 191.712H2084.13C2078.91 179.529 2067.72 172.568 2052.81 172.568C2038.14 172.568 2026.95 179.529 2021.73 191.712ZM2052.81 246.162C2065.24 246.162 2074.94 241.438 2080.9 232.736H2113.47C2105.27 257.848 2083.14 273.512 2053.06 273.512C2014.52 273.512 1988.66 247.654 1988.66 209.116C1988.66 170.827 2014.52 145.218 2053.06 145.218C2091.59 145.218 2117.2 170.827 2117.2 209.116C2117.2 212.597 2116.95 215.829 2116.71 219.062H2019.49C2022.72 236.217 2035.15 246.162 2052.81 246.162Z" fill="white"/>
<path d="M1947.46 271.274V97.2324H1977.3V271.274H1947.46Z" fill="white"/>
<path d="M1837.45 321H1807.62V208.868C1807.62 168.838 1836.21 144.97 1872.51 144.97C1910.3 144.97 1936.16 170.579 1936.16 208.868C1936.16 247.406 1910.3 273.263 1874 273.263C1856.1 273.263 1843.42 266.799 1837.45 259.091V321ZM1906.32 209.116C1906.32 185.994 1892.65 172.319 1871.76 172.319C1851.13 172.319 1837.45 185.994 1837.45 209.116C1837.45 232.239 1851.13 245.914 1871.76 245.914C1892.65 245.914 1906.32 232.239 1906.32 209.116Z" fill="white"/>
<path d="M1667.43 209.116C1667.43 170.827 1693.29 145.218 1731.83 145.218C1770.36 145.218 1795.97 170.827 1795.97 209.116C1795.97 247.654 1770.36 273.512 1731.83 273.512C1693.29 273.512 1667.43 247.654 1667.43 209.116ZM1697.27 209.365C1697.27 232.488 1710.94 246.162 1731.58 246.162C1752.46 246.162 1766.14 232.488 1766.14 209.365C1766.14 186.242 1752.46 172.568 1731.58 172.568C1710.94 172.568 1697.27 186.242 1697.27 209.365Z" fill="white"/>
<path d="M1561.61 191.712H1624.02C1618.8 179.529 1607.61 172.568 1592.69 172.568C1578.02 172.568 1566.84 179.529 1561.61 191.712ZM1592.69 246.162C1605.13 246.162 1614.82 241.438 1620.79 232.736H1653.36C1645.15 257.848 1623.03 273.512 1592.94 273.512C1554.4 273.512 1528.55 247.654 1528.55 209.116C1528.55 170.827 1554.4 145.218 1592.94 145.218C1631.48 145.218 1657.09 170.827 1657.09 209.116C1657.09 212.597 1656.84 215.829 1656.59 219.062H1559.38C1562.61 236.217 1575.04 246.162 1592.69 246.162Z" fill="white"/>
<path d="M1382.22 271.274V97.2324H1461.03C1499.08 97.2324 1524.44 122.593 1524.44 160.633C1524.44 199.917 1499.08 225.277 1461.03 225.277H1413.3V271.274H1382.22ZM1458.3 196.685C1479.43 196.685 1493.36 182.761 1493.36 161.628C1493.36 139.748 1479.43 125.825 1458.3 125.825H1413.3V196.685H1458.3Z" fill="white"/>
<path d="M1275.35 191.712H1337.76C1332.53 179.529 1321.35 172.568 1306.43 172.568C1291.76 172.568 1280.57 179.529 1275.35 191.712ZM1306.43 246.162C1318.86 246.162 1328.56 241.438 1334.52 232.736H1367.09C1358.89 257.848 1336.76 273.512 1306.68 273.512C1268.14 273.512 1242.28 247.654 1242.28 209.116C1242.28 170.827 1268.14 145.218 1306.68 145.218C1345.21 145.218 1370.82 170.827 1370.82 209.116C1370.82 212.597 1370.57 215.829 1370.33 219.062H1273.11C1276.34 236.217 1288.78 246.162 1306.43 246.162Z" fill="white"/>
<path d="M1202.1 97.2324H1231.94V209.365C1231.94 249.394 1203.35 273.263 1166.8 273.263C1129.26 273.263 1103.4 247.654 1103.4 209.365C1103.4 170.827 1129.26 144.97 1165.31 144.97C1183.21 144.97 1196.14 151.434 1202.1 159.141V97.2324ZM1133.23 209.116C1133.23 232.239 1146.91 245.914 1167.55 245.914C1188.43 245.914 1202.1 232.239 1202.1 209.116C1202.1 185.994 1188.43 172.319 1167.55 172.319C1146.91 172.319 1133.23 185.994 1133.23 209.116Z" fill="white"/>
<path d="M964.516 209.116C964.516 170.827 990.373 145.218 1028.91 145.218C1067.45 145.218 1093.06 170.827 1093.06 209.116C1093.06 247.654 1067.45 273.512 1028.91 273.512C990.373 273.512 964.516 247.654 964.516 209.116ZM994.351 209.365C994.351 232.488 1008.03 246.162 1028.66 246.162C1049.55 246.162 1063.22 232.488 1063.22 209.365C1063.22 186.242 1049.55 172.568 1028.66 172.568C1008.03 172.568 994.351 186.242 994.351 209.365Z" fill="white"/>
<path d="M801.102 184.253C801.102 130.051 834.667 94 888.868 94C919.698 94 943.318 105.686 959.231 125.576L933.87 142.98C923.428 130.051 908.51 122.593 888.868 122.593C853.065 122.593 832.18 146.461 832.18 184.253C832.18 222.045 853.065 245.913 888.868 245.913C908.51 245.913 923.428 238.454 933.87 225.526L959.231 242.93C943.318 262.82 919.698 274.506 888.868 274.506C834.667 274.506 801.102 238.454 801.102 184.253Z" fill="white"/>
<path d="M793.432 245.665V273.014C752.656 273.014 731.025 252.378 731.025 214.089V97.2324H760.861V146.959H789.205V174.308H760.861V213.84C760.861 236.466 770.06 245.665 793.432 245.665Z" fill="white"/>
<path d="M623.908 191.712H686.314C681.093 179.529 669.904 172.568 654.987 172.568C640.317 172.568 629.129 179.529 623.908 191.712ZM654.987 246.162C667.418 246.162 677.115 241.438 683.082 232.736H715.652C707.448 257.848 685.32 273.512 655.235 273.512C616.697 273.512 590.84 247.654 590.84 209.116C590.84 170.827 616.697 145.218 655.235 145.218C693.773 145.218 719.382 170.827 719.382 209.116C719.382 212.597 719.133 215.829 718.885 219.062H621.67C624.902 236.217 637.334 246.162 654.987 246.162Z" fill="white"/>
<path d="M425 184.253C425 130.051 458.565 94 512.767 94C543.597 94 567.217 105.686 583.129 125.576L557.769 142.98C547.326 130.051 532.408 122.593 512.767 122.593C476.964 122.593 456.079 146.461 456.079 184.253C456.079 222.045 476.964 245.913 512.767 245.913C527.685 245.913 540.116 241.935 549.315 234.974V205.138H512.767V176.545H580.394V246.162C566.968 263.069 543.597 274.506 512.767 274.506C458.565 274.506 425 238.454 425 184.253Z" fill="white"/>
<path d="M481.871 371V322H490.971V363.3H516.591V371H481.871ZM567.875 363.37H595.525V371H558.775V322H594.545V329.63H567.875V342.37H591.535V349.86H567.875V363.37ZM677.35 371L672.45 359.66H647.95L643.12 371H633.74L655.79 322H664.75L686.87 371H677.35ZM651.03 352.52H669.44L660.2 331.1L651.03 352.52ZM769.961 371H760.161L750.151 356.65C749.521 356.72 748.891 356.72 748.261 356.72H737.201V371H728.101V322H748.261C761.141 322 769.121 328.58 769.121 339.43C769.121 346.85 765.341 352.31 758.691 354.9L769.961 371ZM759.951 339.43C759.951 333.27 755.821 329.7 747.841 329.7H737.201V349.23H747.841C755.821 349.23 759.951 345.59 759.951 339.43ZM848.813 322H857.843V371H850.353L823.333 337.82V371H814.303V322H821.793L848.813 355.18V322ZM905.973 371V322H915.073V371H905.973ZM997.836 322H1006.87V371H999.376L972.356 337.82V371H963.326V322H970.816L997.836 355.18V322ZM1088.46 361.2V345.94H1097.07V365.47C1091.96 369.6 1084.82 371.7 1077.89 371.7C1062.7 371.7 1051.5 361.13 1051.5 346.5C1051.5 331.87 1062.7 321.3 1078.03 321.3C1086.22 321.3 1093.08 324.03 1097.7 329.28L1091.96 334.88C1088.11 331.03 1083.7 329.28 1078.45 329.28C1068.02 329.28 1060.67 336.35 1060.67 346.5C1060.67 356.44 1068.02 363.72 1078.38 363.72C1081.88 363.72 1085.31 363.02 1088.46 361.2ZM1235.09 371L1230.19 359.66H1205.69L1200.86 371H1191.48L1213.53 322H1222.49L1244.61 371H1235.09ZM1208.77 352.52H1227.18L1217.94 331.1L1208.77 352.52ZM1307.84 371.7C1292.86 371.7 1281.66 361.13 1281.66 346.5C1281.66 331.87 1292.86 321.3 1307.91 321.3C1315.89 321.3 1322.75 324.17 1327.3 329.49L1321.42 335.02C1317.85 331.17 1313.44 329.28 1308.33 329.28C1298.18 329.28 1290.83 336.42 1290.83 346.5C1290.83 356.58 1298.18 363.72 1308.33 363.72C1313.44 363.72 1317.85 361.83 1321.42 357.91L1327.3 363.51C1322.75 368.83 1315.89 371.7 1307.84 371.7ZM1406.68 371L1401.78 359.66H1377.28L1372.45 371H1363.07L1385.12 322H1394.08L1416.2 371H1406.68ZM1380.36 352.52H1398.77L1389.53 331.1L1380.36 352.52ZM1457.43 371V322H1478.85C1494.74 322 1505.59 331.8 1505.59 346.5C1505.59 361.2 1494.74 371 1478.85 371H1457.43ZM1466.53 363.3H1478.43C1489.35 363.3 1496.42 356.65 1496.42 346.5C1496.42 336.35 1489.35 329.7 1478.43 329.7H1466.53V363.3ZM1559.36 363.37H1587.01V371H1550.26V322H1586.03V329.63H1559.36V342.37H1583.02V349.86H1559.36V363.37ZM1685.77 371H1677.16L1677.09 338.52L1660.99 365.4H1656.93L1640.83 338.94V371H1632.15V322H1639.64L1659.1 354.48L1678.21 322H1685.7L1685.77 371ZM1774.33 322L1755.15 353.71V371H1746.05V353.85L1726.8 322H1736.53L1750.88 345.87L1765.37 322H1774.33Z" fill="white"/>
<g clip-path="url(#clip1_194_1273)">
<path d="M432.689 141.457C432.875 140.747 432.937 138.395 433.108 137.198C433.294 136.001 433.232 131.839 432.922 130.099C432.611 128.346 429.32 116.056 414.34 116C410.739 116.376 408.612 117.475 408.612 117.475C405.042 117.907 396.752 125.075 394.967 131.046C393.182 137.017 394.781 139.675 395.278 140.691C395.759 141.707 394.812 138.91 395.619 138.91C396.426 138.91 396.209 139.912 396.364 140.636C396.535 141.359 395.945 141.526 396.752 142.542C397.56 143.559 397.761 143.586 397.761 143.586L395.014 145.438C395.014 145.438 396.783 148.722 397.575 148.875C398.739 149.098 399.826 148.945 399.826 148.945C399.826 148.945 400.431 150.727 400.431 151.311C400.431 151.896 401.735 152.063 402.387 152.202C402.387 152.202 403.552 153.51 403.909 153.844C404.281 154.178 404.095 154.387 404.328 154.665C404.576 154.944 404.933 154.777 405.119 154.777C405.306 154.777 404.638 155.431 405.057 155.654C405.476 155.876 405.973 155.821 406.16 156.085C406.346 156.364 406.703 156.906 406.951 157.839C407.2 158.771 407.867 159.203 408.472 159.426C409.078 159.648 413.828 159.593 414.682 160.024C415.536 160.456 415.054 161.124 415.054 161.555C415.054 161.987 413.952 163.907 413.952 164.116C413.952 164.325 416.389 159.968 421.326 156.851C426.262 153.733 430.407 151.228 431.137 150.949C431.137 150.949 429.972 150.072 430.531 149.307C431.075 148.541 431.82 148.541 431.99 147.776C432.177 147.01 431.99 143.684 432.115 141.93C432.115 141.93 432.487 142.153 432.658 141.443L432.689 141.457Z" fill="white"/>
<path d="M420.254 164.826C423.111 161.165 428.358 154.777 434.086 152.87C434.086 152.87 433.232 151.882 433.232 151.13C433.232 150.379 432.192 150.587 432.192 150.587L430.919 150.977C430.919 150.977 416.234 158.41 413.983 164.144C413.983 164.144 412.881 165.077 412.757 165.341C412.632 165.619 414.588 169.544 414.883 169.878C415.194 170.212 413.238 176.323 413.238 176.323C413.238 176.323 417.383 168.514 420.239 164.854L420.254 164.826Z" fill="white"/>
<path d="M451.518 182.461C452.496 178.675 453.459 166.148 439.177 158.423L435.436 152.759C434.769 152.536 432.456 152.703 430.081 154.512C427.706 156.308 418.873 163.531 414.852 172.704C414.852 172.704 403.644 194.222 401.875 198.759L401.331 200.067C401.331 200.067 398.537 200.123 398.102 199.956C397.683 199.789 396.643 199.9 396.271 200.012C395.898 200.123 394.501 199.678 394.253 199.525C394.004 199.358 388.649 197.005 388.168 196.908C387.686 196.797 387.19 197.952 386.957 198.272C386.708 198.606 384.147 207.555 384.038 207.945L382.455 207.723C382.455 207.723 381.477 211.16 381.787 212.524C381.787 212.524 381.85 212.914 382.098 213.179C382.346 213.457 382.408 213.721 382.408 213.721L395.572 215.252C395.572 215.252 395.696 216.296 396.116 216.394C396.535 216.505 398.118 216.616 398.491 216.881C398.863 217.159 399.034 217.591 398.925 217.925C398.801 218.259 394.175 231.523 392.887 235.629C391.614 239.721 388.866 250.925 388.494 256.117C388.494 256.117 394.532 259.179 402.076 260.376C402.076 260.376 403.287 270.731 404.436 275.547C404.436 275.547 405.569 281.518 405.569 290.12C405.569 298.721 407.028 314.588 408.488 323.19C409.947 331.778 412.384 338.626 412.384 340.672C412.384 342.718 409.792 349.997 408.814 352.767C407.836 355.536 408.969 357.137 408.969 357.137C408.969 357.137 406.532 358.014 406.376 358.445C406.206 358.877 405.072 361.215 405.398 362.092C405.724 362.969 405.554 363.693 404.917 363.693C404.281 363.693 393.057 365.878 389.487 364.57C389.487 364.57 386.724 365.154 386.895 367.047C386.895 367.047 385.435 367.771 386.243 368.216C387.05 368.648 392.25 370.833 394.532 370.986C396.814 371.139 445.542 370.986 445.542 370.986C445.542 370.986 444.564 365.6 444.238 363.707C444.238 363.707 444.719 362.983 445.045 361.229C445.371 359.475 446.349 349.719 446.675 346.67C447.001 343.608 445.697 317.831 445.216 313.169C444.735 308.506 442.127 299.626 441.475 295.687C440.823 291.748 438.712 278.359 439.519 275.004C440.326 271.65 441.149 261.754 441.149 261.754C441.149 261.754 448.942 261.462 450.245 260.585C451.549 259.708 448.46 246.165 449.112 241.503C449.764 236.84 447.001 221.836 448.134 214.988C449.268 208.14 450.571 186.288 451.549 182.502L451.518 182.461Z" fill="white"/>
<path d="M360.459 212.246L382.424 207.709L385.234 202.406L381.741 190.826C381.741 190.826 377.597 181.723 377.193 181.069C376.789 180.415 375.734 180.345 375.734 180.345C375.734 180.345 347.528 186.26 347.14 186.608C346.891 186.831 347.062 187.332 347.062 187.332C347.062 187.332 358.441 211.369 358.844 211.87C359.248 212.385 360.474 212.232 360.474 212.232L360.459 212.246Z" fill="white"/>
<path d="M369.556 196.142C368.826 196.073 363.797 193.526 357.044 194.472C356.47 194.556 355.818 196.003 356.966 196.518C358.115 197.033 361.763 197.242 363.471 197.896C365.178 198.55 366.808 198.912 367.289 199.135C367.771 199.358 358.441 199.065 357.712 199.274C356.982 199.497 356.252 200.374 356.811 200.944C357.386 201.529 359 201.237 359.823 201.306C360.63 201.376 364.449 201.738 365.349 201.96C366.249 202.183 368.19 202.475 368.438 202.615C368.687 202.768 363.486 203.714 362.353 204.8C361.22 205.899 362.027 206.4 363.253 206.178C364.48 205.955 368.454 205.37 369.587 205.092C370.72 204.8 372.024 204.577 372.754 204.661C373.483 204.73 381.618 208.001 384.132 208.015C384.132 208.015 386.709 198.188 388.184 196.894C388.184 196.894 387.936 195.057 387.377 194.041C386.802 193.025 386.073 191.201 385.669 190.478C385.266 189.754 384.21 188.654 382.828 189.462C381.447 190.269 381.198 191.786 381.292 192.454C381.369 193.108 380.888 194.639 380.158 194.862C379.429 195.085 376.014 194.792 375.206 194.069C374.399 193.345 369.758 190.937 368.795 190.213C367.817 189.489 365.458 187.736 364.169 188.251C362.865 188.766 363.595 190.004 364.573 190.728C365.551 191.452 368.795 193.498 369.602 194.152C370.41 194.806 371.558 195.168 371.388 195.683C371.232 196.198 370.332 196.268 369.602 196.198L369.556 196.142Z" fill="white"/>
<path d="M413.828 173.205C413.89 172.119 415.287 169.558 415.287 169.558L412.927 165.619C412.927 165.619 411.872 167.443 411.546 168.097C411.22 168.751 410.413 169.336 410.32 170.212C410.242 171.089 409.419 173.121 409.419 174.945C409.419 176.768 408.441 180.693 408.193 182.294C407.944 183.894 406.408 187.096 406.237 188.265C406.082 189.434 405.43 191.104 405.43 191.104C405.43 191.104 410.226 182.001 411.034 180.331C411.841 178.661 413.719 174.792 413.797 173.191L413.828 173.205Z" fill="white"/>
<path d="M399.205 218.44C399.282 217.493 399.857 216.616 397.575 216.616C397.575 216.616 396.519 222.518 395.79 224.48C395.06 226.443 393.353 228.698 393.353 229.797C393.353 230.897 393.43 235.476 393.43 235.476C393.43 235.476 394.237 233.806 394.641 233.068C395.045 232.344 399.112 219.372 399.189 218.426L399.205 218.44Z" fill="white"/>
<path d="M388.975 218.649C389.224 219.011 389.053 219.164 389.301 219.748C389.549 220.333 390.683 220.764 391.257 221.279C391.831 221.794 392.639 221.794 393.291 221.641C393.943 221.502 394.672 220.987 394.827 220.695C394.998 220.402 394.905 220.18 395.557 220.18C396.209 220.18 396.364 219.887 396.613 219.526C396.861 219.164 397.016 219.094 397.187 218.802C397.342 218.509 397.699 216.477 397.699 216.477C397.699 216.477 396.178 216.436 396.054 215.851C395.93 215.266 395.573 215.169 395.573 215.169C395.573 215.169 391.009 214.584 389.875 214.584C389.053 214.584 388.572 215.239 388.742 215.823C388.913 216.408 389.317 216.7 389.146 217.354C388.975 218.008 388.742 218.301 388.975 218.663V218.649Z" fill="white"/>
<path d="M408.934 199.33C408.934 199.33 408.797 199.33 408.751 199.345C408.69 199.36 408.767 199.345 408.934 199.33Z" fill="white"/>
<path d="M422.149 196.407C421.047 195.864 419.463 197.395 418.252 198.161C417.042 198.926 415.94 199.037 414.356 198.815C413.037 198.634 409.792 199.205 408.938 199.344C409.373 199.302 410.165 199.413 410.693 199.803C411.298 200.234 411.795 200.346 413.502 200.346C415.21 200.346 415.443 200.457 416.669 201.766C417.895 203.074 418.625 201.431 418.377 200.777C418.128 200.123 419.106 199.246 419.587 199.135C420.069 199.024 420.69 199.566 421.668 200.123C422.646 200.666 423.732 202.308 425.083 203.617C426.418 204.925 427.52 207.764 428.374 206.567C429.228 205.37 425.937 202.628 425.207 201.543C424.477 200.457 424.353 200.123 424.353 199.692C424.353 199.26 424.959 197.618 425.455 198.383C425.937 199.149 428.25 200.791 428.746 199.914C429.228 199.037 426.666 198.272 425.704 197.186C424.726 196.087 425.098 195.335 424.974 194.778C424.85 194.236 425.704 192.05 427.163 188.988C428.622 185.926 427.287 184.395 428.141 178.508C428.995 172.606 432.643 166.162 432.643 166.162C430.563 167.359 428.622 173.261 428.87 172.175C429.119 171.089 428.622 171.298 427.644 172.398C426.666 173.497 426.542 175.571 426.418 176.002C426.294 176.434 426.542 179.83 426.418 180.804C426.294 181.793 426.045 183.978 425.812 185.286C425.564 186.594 425.812 187.137 425.44 187.583C425.067 188.014 424.71 187.36 424.105 185.731C423.499 184.089 423.499 181.793 423.375 180.164C423.251 178.522 423.499 177.436 423.375 176.336C423.251 175.251 422.521 174.597 421.792 178.856C421.062 183.115 423.251 189.128 423.748 190.325C424.229 191.522 423.267 192.732 423.142 194.806C423.018 196.88 423.267 196.991 422.164 196.449L422.149 196.407Z" fill="white"/>
<path d="M449.747 172.733C449.623 171.916 449.484 171.127 449.314 170.407C449.314 170.407 449.515 171.349 449.747 172.733Z" fill="white"/>
<path d="M410.418 217.937C409.739 217.799 409.106 217.688 408.55 217.646C409.152 217.743 409.769 217.84 410.418 217.937Z" fill="white"/>
<path d="M448.461 186.358C446.381 192.482 436.772 208.098 435.421 209.63C434.086 211.161 431.261 214.459 429.817 215.42C427.023 217.271 425.191 218.036 421.528 218.802C419.649 219.191 414.744 218.607 410.413 217.939C412.307 218.329 414.387 218.941 415.318 219.233C416.653 219.665 418.966 219.665 422.382 219.887C425.797 220.11 430.174 216.394 431.276 216.06C432.379 215.726 433.838 212.998 436.88 209.727C439.923 206.456 443.587 197.604 445.527 194.542C447.467 191.48 449.175 186.998 450.277 183.727C451.038 181.445 450.277 175.905 449.734 172.732C450.277 176.531 450.153 181.319 448.445 186.344L448.461 186.358Z" fill="white"/>
<path d="M408.131 217.605C408.255 217.605 408.41 217.632 408.534 217.646C405.306 217.118 402.76 216.616 402.76 216.616C402.76 216.616 406.051 217.493 408.115 217.605H408.131Z" fill="white"/>
<path d="M440.295 258.567L441.025 261.406C441.025 261.406 444.999 261.545 447.28 260.822C447.28 260.822 442.887 257.105 432.005 257.105C421.124 257.105 402.356 258.929 399.189 258.414C396.022 257.899 389.44 256.521 389.44 256.521C389.44 256.521 400.322 260.195 402.03 260.362V259.137C402.03 259.137 430.298 255.491 440.295 258.553V258.567Z" fill="white"/>
<path d="M408.301 228.851C408.301 228.851 407.82 232.052 407.323 233.152C406.842 234.251 405.212 234.822 403.101 234.905C400.99 234.975 393.508 233.903 393.756 233.959C400.416 235.629 405.538 235.198 406.92 234.182C408.301 233.166 408.301 228.865 408.301 228.865V228.851Z" fill="white"/>
<path d="M395.045 226.888C395.045 226.888 404.452 227.779 407.603 228.294C405.197 227.821 398.538 226.624 395.045 226.888Z" fill="white"/>
<path d="M407.604 228.294C408.167 228.407 408.512 228.477 408.512 228.477C408.34 228.421 408.026 228.364 407.604 228.294Z" fill="white"/>
</g>
<defs>
<linearGradient id="paint0_linear_194_1273" x1="109.888" y1="167.047" x2="299.28" y2="167.047" gradientUnits="userSpaceOnUse">
<stop stop-color="#24ABF3"/>
<stop offset="1" stop-color="#0087D1"/>
</linearGradient>
<linearGradient id="paint1_linear_194_1273" x1="81.1654" y1="112.978" x2="243.657" y2="210.255" gradientUnits="userSpaceOnUse">
<stop stop-color="#23ACF2"/>
<stop offset="1" stop-color="#2C5D7A"/>
</linearGradient>
<linearGradient id="paint2_linear_194_1273" x1="232.636" y1="334.093" x2="232.636" y2="24.614" gradientUnits="userSpaceOnUse">
<stop stop-color="#23ACF2"/>
<stop offset="1" stop-color="#5C75A7"/>
</linearGradient>
<linearGradient id="paint3_linear_194_1273" x1="218.508" y1="190.089" x2="345.293" y2="231.136" gradientUnits="userSpaceOnUse">
<stop offset="1" stop-color="#23ACF2"/>
</linearGradient>
<linearGradient id="paint4_linear_194_1273" x1="135.413" y1="193.393" x2="303.442" y2="276.059" gradientUnits="userSpaceOnUse">
<stop stop-color="#23A2F1"/>
<stop offset="1" stop-color="#002256" stop-opacity="0"/>
</linearGradient>
<linearGradient id="paint5_linear_194_1273" x1="-0.000430431" y1="297.065" x2="189.392" y2="297.065" gradientUnits="userSpaceOnUse">
<stop stop-color="#0172B6"/>
<stop offset="1" stop-color="#23ACF2"/>
</linearGradient>
<linearGradient id="paint6_linear_194_1273" x1="91.3286" y1="254.178" x2="202.77" y2="407.31" gradientUnits="userSpaceOnUse">
<stop stop-color="#0273B7"/>
<stop offset="1" stop-color="#21A3F1"/>
</linearGradient>
<linearGradient id="paint7_linear_194_1273" x1="66.6253" y1="439.48" x2="66.6253" y2="130" gradientUnits="userSpaceOnUse">
<stop stop-color="#387392"/>
<stop offset="1" stop-color="#24ABF3"/>
</linearGradient>
<linearGradient id="paint8_linear_194_1273" x1="-36.0462" y1="216.078" x2="192.446" y2="320.714" gradientUnits="userSpaceOnUse">
<stop stop-color="#23A7F1"/>
<stop offset="1" stop-color="#22A4F0"/>
</linearGradient>
<linearGradient id="paint9_linear_194_1273" x1="163.867" y1="270.7" x2="-4.1623" y2="188.052" gradientUnits="userSpaceOnUse">
<stop stop-color="#24ABF3"/>
<stop offset="1" stop-color="#003256" stop-opacity="0"/>
</linearGradient>
<clipPath id="clip0_194_1273">
<rect width="299.28" height="464.111" fill="white"/>
</clipPath>
<clipPath id="clip1_194_1273">
<rect width="105" height="255" fill="white" transform="translate(347 116)"/>
</clipPath>
</defs>
</svg>
